<?xml version="1.0" standalone="no"?>
<!DOCTYPE svg PUBLIC "-//W3C//DTD SVG 20010904//EN"
 "http://www.w3.org/TR/2001/REC-SVG-20010904/DTD/svg10.dtd">
<svg version="1.0" xmlns="http://www.w3.org/2000/svg"
 width="700.000000pt" height="700.000000pt" viewBox="0 0 700.000000 700.000000"
 preserveAspectRatio="xMidYMid meet">
<metadata>
Created by potrace 1.14, written by Peter Selinger 2001-2017
</metadata>
<g transform="translate(0.000000,700.000000) scale(0.100000,-0.100000)"
fill="#000000" stroke="none">
<path d="M3303 6802 c-105 -108 -208 -215 -228 -237 -73 -78 -200 -218 -218
-239 -10 -12 -33 -37 -50 -56 -18 -19 -73 -82 -122 -140 -50 -58 -92 -107 -95
-110 -15 -14 -246 -299 -321 -395 -422 -543 -726 -1011 -962 -1480 -75 -150
-180 -385 -216 -485 -7 -19 -17 -44 -21 -55 -52 -124 -139 -452 -165 -623 -34
-217 -38 -494 -10 -682 2 -14 7 -45 10 -70 5 -38 18 -104 51 -255 6 -30 73
-247 84 -272 6 -13 14 -33 19 -45 140 -343 320 -616 576 -873 223 -226 426
-375 687 -506 196 -99 487 -198 656 -225 20 -3 40 -8 43 -9 3 -2 28 -7 55 -11
27 -3 58 -8 69 -10 95 -19 453 -25 615 -11 75 6 111 11 220 31 452 81 932 317
1264 620 120 109 215 210 311 327 437 535 660 1353 534 1960 -37 179 -148 455
-230 576 -16 23 -29 44 -29 48 0 11 -101 156 -193 280 -73 97 -273 344 -297
365 -3 3 -39 43 -80 90 -41 47 -91 103 -111 125 -20 22 -60 67 -90 100 -147
165 -199 224 -235 265 -21 25 -43 50 -49 56 -5 6 -24 26 -40 45 -17 19 -55 63
-84 99 -30 36 -57 67 -60 70 -4 3 -53 64 -109 135 -57 72 -108 137 -115 145
-59 73 -298 418 -346 501 -176 296 -291 523 -375 739 -21 52 -46 115 -56 140
-10 25 -32 90 -50 145 -17 55 -35 105 -38 112 -4 7 -81 -65 -199 -185z m161
-857 c46 -89 96 -178 164 -288 37 -59 72 -116 77 -125 93 -161 476 -665 680
-896 6 -6 41 -47 80 -91 38 -44 72 -82 75 -85 3 -3 35 -38 70 -79 36 -41 76
-86 90 -101 61 -65 324 -365 404 -460 397 -474 567 -805 579 -1125 l2 -60 -35
1 c-44 1 -161 14 -177 19 -78 26 -745 26 -938 1 -22 -3 -80 -11 -130 -17 -49
-6 -99 -13 -110 -15 -11 -2 -47 -9 -80 -15 -33 -6 -71 -13 -85 -16 -14 -2 -70
-15 -125 -29 -55 -14 -106 -25 -114 -26 -12 -1 -223 -72 -486 -164 -116 -41
-220 -67 -325 -84 -41 -7 -84 -14 -95 -16 -38 -7 -211 -17 -290 -17 -87 0
-306 12 -315 18 -3 1 -27 6 -55 9 -270 35 -627 148 -911 288 l-102 50 3 62 c3
67 15 200 21 231 5 23 12 60 20 108 17 103 124 449 173 560 10 23 38 87 62
142 134 308 391 756 635 1105 111 158 132 188 238 329 164 219 515 656 560
696 6 6 24 26 40 45 30 38 141 162 221 248 l50 54 52 -104 c28 -56 63 -125 77
-153z"/>
<path d="M2895 4956 c-6 -7 -45 -53 -87 -101 -161 -181 -362 -463 -547 -769
-56 -91 -101 -168 -101 -171 0 -2 -15 -30 -34 -62 -18 -32 -56 -102 -84 -157
l-50 -98 189 -94 c104 -52 192 -95 196 -95 4 -1 40 61 81 137 59 111 209 368
285 488 16 26 218 318 229 331 4 5 40 51 79 100 40 50 91 110 115 135 24 25
44 50 44 55 0 6 -69 79 -153 163 -118 118 -154 149 -162 138z"/>
</g>
</svg>
